#!OML:ASF E:/inclinewalkrobotboard/Project1/Captureday1/Session1/subject1.ASF
:FULLY-SPECIFIED
:DEGREES
301
root 0 0 0 -1.6816692699239124 -5.270770092914073 -7.236718733011954
lowerback 10.086633536657708 2.448539806487425 5.494613883843617
upperback 0.029074670645077183 3.981672346904995 1.4088791503126976
thorax -5.547174833094443 1.832076891396778 -2.178464360082507
lowerneck -14.547551822648547 -3.3209913392417034 -0.9043833246802477
upperneck 17.116459145624198 -4.582648758219524 1.4032852092186947
head 7.902768953186629 -2.130334112004686 0.11615738269189835
rclavicle -1.7063976881066389E-16 -6.42673133024832E-17
rhumerus -19.479123036425815 -7.08764873826566 -67.21636643564743
rradius 61.16954401440284
rwrist -8.3281193857975
rhand -13.27578386166745 -9.49146846772825
rfingers 7.125019999999861
rthumb 12.855601523715302 -38.71968331319552
lclavicle -8.703561243047089E-16 -4.1221902983756097E-16
lhumerus -40.46397975129761 0.3193379471250867 83.36571964759797
lradius 39.35796424356874
lwrist 2.332948629788282
lhand -18.568309386604202 -1.789242462364367
lfingers 7.125019999999861
lthumb 7.6091216751738635 27.68218086635317
rfemur -6.182602859277761 2.507028576533653 15.268964773158883
rtibia 26.197498750103712
rfoot -2.4278218769953055 -2.767134137588287
rtoes 3.385529475037173
lfemur -12.11878158942206 -2.4844413325861785 -14.009281660265945
ltibia 32.21645636965024
lfoot -12.066046599133184 2.757156506460963
ltoes -23.29331252019225
302
root 0 0 0 -1.6736005759869572 -5.248458405457698 -7.207875296967023
lowerback 10.084573714519621 2.4404149634221763 5.456714306828303
upperback 0.025340012742088303 3.966063378858223 1.4026090288777993
thorax -5.550754384577829 1.8249704278520325 -2.1623805959307605
lowerneck -14.517805611858508 -3.317577197894815 -0.8980386529944405
upperneck 17.073758935295842 -4.580115071438785 1.4120294802724505
head 7.889087268618223 -2.1283907729278897 0.11932958815013056
rclavicle -1.7178109794944872E-16 -6.668873473481355E-17
rhumerus -19.51038861427917 -7.121431084862996 -67.25231523390597
rradius 61.0610689799137
rwrist -8.290029243232627
rhand -13.290152670978578 -9.391307520801755
rfingers 7.125019999999861
rthumb 12.841707474503142 -38.621282836249996
lclavicle -8.635404395469114E-16 -4.115346384861594E-16
lhumerus -40.43508865996458 0.3125655906623457 83.36326518068881
lradius 39.33106048693197
lwrist 2.3462541447902465
lhand -18.594791704825603 -1.7101183853099613
lfingers 7.125019999999862
lthumb 7.5842125810156595 27.76230366738552
rfemur -6.084499771603074 2.6863179652205593 15.471252287888952
rtibia 25.13262110276026
rfoot -3.1442986040695753 -2.932749801735508
rtoes 2.926635139160559
lfemur -11.124890908973438 -2.6603541038883023 -14.357805951486485
ltibia 31.006608888692234
lfoot -12.798316419913842 3.122882356108236
ltoes -23.920714377532303
303
root 0 0 0 -1.668887918600062 -5.2213298142849265 -7.169151329665828
lowerback 10.083477612869304 2.4270901666177362 5.411418577421348
upperback 0.023242210255692897 3.942356598790644 1.398525577834877
thorax -5.553072182902172 1.8143466738783856 -2.1388051638857375
lowerneck -14.500412990857571 -3.313746954801721 -0.8960482027579824
upperneck 17.04554866481311 -4.575545876726272 1.4171893808918203
head 7.881106502938371 -2.125861688867234 0.12180380233731308
rclavicle -1.7254274639541232E-16 -6.885893052181652E-17
rhumerus -19.537360992429498 -7.1500191604193075 -67.28193798100607
rradius 60.97063170103224
rwrist -8.257964919534238
rhand -13.301972630394044 -9.30800360687152
rfingers 7.125019999999862
rthumb 12.830221697481226 -38.53943715362521
lclavicle -8.590073837736625E-16 -4.113827817996263E-16
lhumerus -40.40066155268058 0.30821962283504994 83.36012790981977
lradius 39.29047300166084
lwrist 2.3611879294347276
lhand -18.628563014496116 -1.60720902336171
lfingers 7.125019999999862
lthumb 7.552082060665665 27.86671368044329
rfemur -5.9166075132294225 2.8209858905886493 15.563431130021474
rtibia 24.123508486962756
rfoot -3.707951528360666 -3.0360090160602304
rtoes 2.534121803608591
lfemur -10.042833644328242 -2.8441650342236566 -14.76735487208181
ltibia 29.723075471986952
lfoot -13.54601802948807 3.472146593502393
ltoes -24.46559584686
304
root 0 0 0 -1.6673443878039849 -5.185332311607686 -7.1137525896750375
lowerback 10.083330049041784 2.4065726460983545 5.350961699092407
upperback 0.02257457848367561 3.9071105805028368 1.395675363176442
thorax -5.554264667022439 1.7985890115112788 -2.1038662651626128
lowerneck -14.492206406203046 -3.3089006464502813 -0.8982145944875564
upperneck 17.02835361798171 -4.568266029551844 1.419378963368161
head 7.877386767408856 -2.122408351510758 0.12397619529163395
rclavicle -1.7348134769201522E-16 -7.120556056885488E-17
rhumerus -19.567222932819668 -7.181213267288163 -67.3130242925372
rradius 60.874263587594854
rwrist -8.223038165668372
rhand -13.31438801243106 -9.219537262517257
rfingers 7.1250199999998625
rthumb 12.818118934410787 -38.452475520309186
lclavicle -8.574034666212264E-16 -4.1193845045737764E-16
lhumerus -40.365373171927146 0.3069416064673992 83.35673561564046
lradius 39.24150910558801
lwrist 2.375679594093368
lhand -18.665067308634235 -1.4945822369720538
lfingers 7.1250199999998625
lthumb 7.517101258704857 27.98147181481975
rfemur -5.8388175004351055 2.8415377400687483 15.470430593059923
rtibia 23.62422446397603
rfoot -3.8590523240329544 -3.0516663518186125
rtoes 2.366923852889345
lfemur -8.889631776012942 -3.0282742405272596 -15.247264559607855
ltibia 28.406374975539837
lfoot -14.270830776141388 3.7744834877925877
ltoes -24.845710522167774
